<svg width="512" height="512" viewBox="0 0 512 512" fill="none" xmlns="http://www.w3.org/2000/svg">
<circle cx="256" cy="256" r="256" fill="#35A7DC"/>
<path fill-rule="evenodd" clip-rule="evenodd" d="M304.602 160.903C304.426 161.086 304.327 161.33 304.327 161.585L304.327 264.404C304.327 279.722 315.037 295.531 326.828 312.938C341.269 334.256 357.333 357.97 357.333 386.11C357.333 446.556 314.543 463.772 266.744 464C266.212 464.002 265.778 463.566 265.778 463.029V455.24C265.778 454.702 266.206 454.266 266.739 454.263C297.834 454.062 333.24 443.958 333.24 388.545C333.24 360.241 317.229 342.514 301.396 324.984C285.911 307.839 270.596 290.882 270.596 264.404V236.168C270.596 235.631 270.165 235.195 269.632 235.195H242.648C242.115 235.195 241.684 235.631 241.684 236.168V264.404C241.684 290.882 226.369 307.839 210.884 324.984C195.052 342.514 179.041 360.241 179.041 388.545C179.041 443.958 214.447 454.062 245.542 454.263C246.074 454.266 246.503 454.702 246.503 455.24V463.029C246.503 463.566 246.069 464.002 245.536 464C197.737 463.772 154.947 446.556 154.947 386.11C154.947 357.97 171.011 334.256 185.452 312.938C197.244 295.531 207.953 279.722 207.953 264.404L207.953 234.593C207.953 234.962 207.747 235.299 207.42 235.464L180.435 249.095C179.795 249.419 179.041 248.948 179.041 248.224V236.168C179.041 235.631 178.609 235.195 178.077 235.195H129.479C129.096 235.195 128.751 235.425 128.589 235.775C124.745 244.061 116.416 249.8 106.76 249.8C93.4536 249.8 82.6665 238.902 82.6665 225.458C82.6665 212.015 93.4536 201.117 106.76 201.117C116.416 201.117 124.745 206.856 128.589 215.141C128.751 215.492 129.096 215.722 129.479 215.722H178.077C178.609 215.722 179.041 215.286 179.041 214.748V202.693C179.041 201.969 179.795 201.498 180.435 201.822L207.42 215.453C207.747 215.618 207.953 215.955 207.953 216.324L207.953 161.585C207.953 161.33 207.854 161.086 207.678 160.903C195.917 148.636 188.678 131.916 188.678 113.489C188.678 75.8475 218.882 45.3333 256.14 45.3333C293.398 45.3333 323.602 75.8475 323.602 113.489C323.602 131.916 316.363 148.636 304.602 160.903ZM256.14 156.401C279.599 156.401 298.616 137.189 298.616 113.489C298.616 89.7887 279.599 70.576 256.14 70.576C232.681 70.576 213.664 89.7887 213.664 113.489C213.664 137.189 232.681 156.401 256.14 156.401ZM269.425 180.323C270.028 180.201 270.596 180.663 270.596 181.285V214.748C270.596 215.286 270.165 215.722 269.632 215.722H242.648C242.115 215.722 241.684 215.286 241.684 214.748V181.285C241.684 180.663 242.252 180.201 242.855 180.323C247.151 181.19 251.593 181.644 256.14 181.644C260.687 181.644 265.13 181.19 269.425 180.323Z" fill="white"/>
</svg>
