<?xml version="1.0" standalone="no"?>
<!DOCTYPE svg PUBLIC "-//W3C//DTD SVG 20010904//EN"
 "http://www.w3.org/TR/2001/REC-SVG-20010904/DTD/svg10.dtd">
<svg version="1.0" xmlns="http://www.w3.org/2000/svg"
 width="512.000000pt" height="512.000000pt" viewBox="0 0 512.000000 512.000000"
 preserveAspectRatio="xMidYMid meet">
<metadata>
Created by potrace 1.14, written by Peter Selinger 2001-2017
</metadata>
<g transform="translate(0.000000,512.000000) scale(0.100000,-0.100000)"
fill="#000000" stroke="none">
<path d="M2320 5110 c-491 -47 -981 -247 -1365 -557 -129 -104 -340 -321 -433
-445 -274 -365 -443 -782 -504 -1238 -16 -123 -16 -509 0 -625 65 -459 233
-873 501 -1230 92 -122 304 -341 426 -440 368 -299 822 -493 1305 -557 123
-16 509 -16 625 0 459 65 873 233 1230 501 122 92 341 304 440 426 299 368
493 822 557 1305 16 123 16 509 0 625 -65 459 -233 873 -501 1230 -92 122
-304 341 -426 440 -365 297 -826 494 -1295 555 -115 15 -443 21 -560 10z m397
-461 c26 -6 90 -31 142 -56 76 -36 107 -58 170 -121 119 -120 179 -240 201
-402 24 -179 -34 -382 -151 -522 l-39 -47 0 -518 c0 -582 2 -597 69 -731 22
-44 98 -167 169 -274 222 -337 281 -477 290 -686 19 -471 -223 -742 -718 -802
-46 -5 -108 -10 -137 -10 l-53 0 0 48 0 49 98 6 c293 20 477 158 547 412 9 33
19 119 22 190 6 155 -8 228 -67 350 -48 100 -93 161 -255 345 -137 156 -185
221 -232 315 -51 100 -56 128 -62 355 l-6 215 -141 3 -142 3 -4 -203 c-5 -185
-7 -210 -31 -283 -42 -129 -103 -220 -277 -415 -179 -200 -240 -291 -286 -425
-26 -73 -28 -93 -28 -225 0 -121 4 -158 22 -225 74 -259 249 -389 553 -413
l94 -7 0 -45 0 -45 -101 2 c-345 5 -619 149 -733 385 -50 104 -70 184 -78 320
-14 251 45 411 297 793 220 335 230 362 230 615 l0 166 -132 -67 c-73 -38
-139 -68 -145 -69 -9 0 -13 20 -13 70 l0 70 -249 0 -249 0 -20 -34 c-43 -73
-147 -124 -230 -112 -127 17 -211 113 -212 242 -1 213 246 321 403 175 16 -14
35 -38 43 -54 l15 -27 247 2 247 3 3 68 c2 37 7 67 13 67 5 0 68 -29 139 -65
71 -36 132 -65 135 -65 3 0 5 119 5 265 l0 266 -50 66 c-95 125 -140 260 -140
418 0 333 227 607 555 671 76 15 193 12 272 -7z"/>
<path d="M2419 4387 c-121 -51 -190 -115 -242 -225 -30 -63 -32 -74 -32 -177
0 -103 2 -114 32 -177 79 -168 225 -255 412 -246 70 3 98 10 152 36 79 38 169
128 204 204 51 113 51 253 0 366 -34 75 -124 166 -204 205 -58 28 -76 32 -165
35 -88 2 -108 0 -157 -21z"/>
<path d="M2420 3139 l0 -180 143 3 142 3 0 175 0 175 -45 -5 c-62 -7 -169 -5
-207 3 l-33 7 0 -181z"/>
</g>
</svg>
