<svg width="300" height="126" viewBox="0 0 300 126" fill="none" xmlns="http://www.w3.org/2000/svg">
<path fill-rule="evenodd" clip-rule="evenodd" d="M194.845 31.4918C194.797 31.5417 194.769 31.6083 194.769 31.6777L194.769 59.6952C194.769 63.8691 197.707 68.177 200.941 72.9202C204.902 78.7293 209.308 85.1912 209.308 92.8591C209.308 109.33 197.571 114.021 184.461 114.083C184.315 114.084 184.196 113.965 184.196 113.819V111.696C184.196 111.55 184.314 111.431 184.46 111.43C192.988 111.375 202.699 108.622 202.699 93.5224C202.699 85.81 198.308 80.9794 193.965 76.2026C189.718 71.5307 185.518 66.9101 185.518 59.6952V52.0011C185.518 51.8546 185.399 51.7358 185.253 51.7358H177.852C177.706 51.7358 177.588 51.8546 177.588 52.0011V59.6952C177.588 66.9102 173.387 71.5307 169.14 76.2026C164.797 80.9794 160.406 85.81 160.406 93.5224C160.406 108.622 170.117 111.375 178.646 111.43C178.792 111.431 178.909 111.55 178.909 111.696V113.819C178.909 113.965 178.79 114.084 178.644 114.083C165.534 114.021 153.797 109.33 153.797 92.8591C153.797 85.1912 158.203 78.7293 162.164 72.9202C165.398 68.177 168.336 63.8691 168.336 59.6952L168.336 51.5718C168.336 51.6723 168.279 51.7642 168.19 51.8091L160.788 55.5235C160.613 55.6117 160.406 55.4834 160.406 55.2862V52.0011C160.406 51.8546 160.287 51.7358 160.141 51.7358H146.812C146.707 51.7358 146.612 51.7986 146.568 51.894C145.514 54.1518 143.229 55.7155 140.581 55.7155C136.931 55.7155 133.972 52.7459 133.972 49.0827C133.972 45.4195 136.931 42.4499 140.581 42.4499C143.229 42.4499 145.514 44.0136 146.568 46.2714C146.612 46.3668 146.707 46.4296 146.812 46.4296H160.141C160.287 46.4296 160.406 46.3108 160.406 46.1643V42.8792C160.406 42.682 160.613 42.5537 160.788 42.6419L168.19 46.3562C168.279 46.4012 168.336 46.4931 168.336 46.5936L168.336 31.6777C168.336 31.6083 168.309 31.5417 168.261 31.4918C165.035 28.1491 163.049 23.5932 163.049 18.5718C163.049 8.31489 171.333 0 181.553 0C191.772 0 200.056 8.31489 200.056 18.5718C200.056 23.5932 198.071 28.1491 194.845 31.4918ZM181.553 30.2652C187.987 30.2652 193.203 25.0299 193.203 18.5718C193.203 12.1138 187.987 6.87846 181.553 6.87846C175.118 6.87846 169.902 12.1138 169.902 18.5718C169.902 25.0299 175.118 30.2652 181.553 30.2652ZM185.196 36.7837C185.362 36.7505 185.518 36.8764 185.518 37.0458V46.1643C185.518 46.3108 185.399 46.4296 185.253 46.4296H177.852C177.706 46.4296 177.588 46.3108 177.588 46.1643V37.0458C177.588 36.8764 177.743 36.7505 177.909 36.7837C179.087 37.0198 180.305 37.1437 181.553 37.1437C182.8 37.1437 184.018 37.0198 185.196 36.7837Z" fill="#E45F2A"/>
<path d="M29.1256 101.932C29.4755 102.151 29.8035 102.5 30.1096 102.98C30.4595 103.46 30.6344 104.071 30.6344 104.814V107.433H18.4987V105.075C18.4987 104.333 18.5643 103.766 18.6955 103.373C18.8704 102.98 19.0454 102.674 19.2203 102.456C19.439 102.194 19.6358 101.954 19.8107 101.736C19.9856 101.474 20.0731 101.146 20.0731 100.754C19.8544 99.5749 19.7014 98.5926 19.6139 97.8069C19.5264 97.0211 19.439 96.4099 19.3515 95.9733C19.264 95.4931 19.1328 95.1657 18.9579 94.9911C18.8267 94.7728 18.6081 94.6637 18.3019 94.6637H17.7771H12.2669C11.8733 94.6637 11.589 94.7073 11.4141 94.7946C11.2392 94.8819 11.1298 95.1221 11.0861 95.5149C11.0424 95.7332 10.9986 96.1261 10.9549 96.6936C10.9549 97.2612 10.9112 97.8505 10.8237 98.4617C10.7363 99.1602 10.6488 99.9241 10.5613 100.754C10.5613 101.234 10.6269 101.605 10.7581 101.867C10.9331 102.085 11.0861 102.325 11.2173 102.587C11.3922 102.849 11.5453 103.155 11.6765 103.504C11.8514 103.853 11.9389 104.377 11.9389 105.075V107.433H0V104.814C0 104.159 0.10933 103.657 0.327991 103.307C0.546653 102.915 0.78718 102.587 1.04957 102.325C1.31197 102.063 1.57436 101.801 1.83675 101.539C2.14288 101.277 2.36154 100.95 2.49274 100.557L6.16624 83.2697C6.60356 81.1305 7.04088 79.0351 7.47821 76.9833C7.95926 74.8878 8.37472 73.0325 8.72458 71.4173C9.07443 69.7584 9.35869 68.4269 9.57735 67.4228C9.79601 66.3751 9.90534 65.8294 9.90534 65.7857V65.4583C9.90534 65.1091 9.79601 64.8253 9.57735 64.607C9.40242 64.3888 9.18376 64.1487 8.92137 63.8867C8.70271 63.5811 8.48405 63.2101 8.26539 62.7735C8.09046 62.337 8.00299 61.6821 8.00299 60.809V58.4516C10.3208 58.4516 12.2013 58.4516 13.6444 58.4516C15.1313 58.408 16.3121 58.4735 17.1868 58.6481C18.0614 58.8227 18.6955 59.1283 19.0891 59.5649C19.5264 59.9578 19.8544 60.5689 20.0731 61.3984C20.1168 61.573 20.248 62.2715 20.4667 63.4938C20.7291 64.6725 21.0571 66.2005 21.4506 68.0776C21.8442 69.9111 22.2816 72.0066 22.7626 74.364C23.2437 76.6777 23.7247 79.0351 24.2058 81.4361C25.3428 87.0677 26.6548 93.4413 28.1417 100.557C28.2291 100.906 28.3603 101.19 28.5353 101.408C28.7102 101.583 28.907 101.758 29.1256 101.932ZM17.7771 88.5083C18.3457 88.5083 18.5862 88.2682 18.4987 87.788L16.9244 78.7513C16.7057 77.6163 16.5089 76.5031 16.334 75.4117C16.159 74.3203 15.9841 73.3381 15.8092 72.465C15.678 71.5919 15.5687 70.8934 15.4812 70.3695C15.3937 69.802 15.35 69.4964 15.35 69.4528H15.2188C15.2188 69.4964 15.1532 69.9548 15.022 70.8279C14.8908 71.6574 14.7159 72.7269 14.4972 74.0366C14.2786 75.3462 14.038 76.7869 13.7756 78.3584C13.5133 79.8864 13.2509 81.327 12.9885 82.6803C12.7698 84.0336 12.573 85.1905 12.3981 86.1509C12.2669 87.1113 12.2013 87.657 12.2013 87.788C12.1576 88.0936 12.1794 88.29 12.2669 88.3773C12.3981 88.4646 12.7042 88.5083 13.1853 88.5083H15.35H17.7771Z" fill="#35A7DC"/>
<path d="M50.933 80.061C50.933 80.6722 50.7581 81.0651 50.4082 81.2397C50.0583 81.3707 49.7085 81.4361 49.3586 81.4361C48.5277 81.3925 47.6749 81.458 46.8003 81.6326C45.9256 81.7635 45.0947 82.0473 44.3076 82.4839C43.5641 82.8768 42.9519 83.4224 42.4708 84.1209C41.9897 84.7758 41.7274 85.6052 41.6836 86.6093V99.7713C41.6836 100.208 41.7274 100.513 41.8148 100.688C41.946 100.863 42.1209 101.037 42.3396 101.212C42.6895 101.43 43.0175 101.779 43.3236 102.26C43.6734 102.74 43.8484 103.395 43.8484 104.224L43.7828 107.433H31.6471V104.159C31.6471 103.329 31.8001 102.674 32.1063 102.194C32.4561 101.714 32.806 101.365 33.1558 101.146C33.3745 100.972 33.5494 100.797 33.6806 100.623C33.8118 100.448 33.8774 100.121 33.8774 99.6404V82.2219C33.8774 82.0037 33.79 81.8072 33.615 81.6326C33.4838 81.4143 33.3308 81.2397 33.1558 81.1087C32.806 80.8904 32.4561 80.5412 32.1063 80.061C31.8001 79.5808 31.6471 78.9696 31.6471 78.2275V74.6914H40.0437C41.137 74.6914 41.6836 75.1716 41.6836 76.132V77.3762C42.1647 76.9833 42.6676 76.6122 43.1924 76.263C43.6734 75.9574 44.1982 75.6518 44.7667 75.3462C45.379 75.0406 46.035 74.8224 46.7347 74.6914C47.2157 74.6041 47.7187 74.5604 48.2435 74.5604C48.812 74.5168 49.3149 74.5386 49.7522 74.6259C50.1895 74.7132 50.4957 74.8442 50.6706 75.0188C50.8455 75.1934 50.933 75.63 50.933 76.3285V80.061Z" fill="#35A7DC"/>
<path d="M68.929 87.1331C67.7482 87.1331 66.8517 86.8057 66.2394 86.1509C65.6709 85.4524 65.3867 84.6448 65.3867 83.728C65.3867 82.7676 65.0368 82.1128 64.3371 81.7635C63.6374 81.3707 63.0032 81.1742 62.4347 81.1742C62.1723 81.1742 61.8443 81.2179 61.4507 81.3052C61.1009 81.3925 60.751 81.5453 60.4012 81.7635C60.0951 81.9382 59.8327 82.2001 59.614 82.5493C59.3953 82.8549 59.286 83.2697 59.286 83.7935V97.8069C59.286 98.5053 59.3735 99.0729 59.5484 99.5094C59.7671 99.9023 60.0295 100.23 60.3356 100.492C60.6854 100.71 61.0353 100.863 61.3852 100.95C61.735 100.994 62.0849 101.016 62.4347 101.016C63.0907 101.016 63.7686 100.841 64.4683 100.492C65.2117 100.099 65.5834 99.5094 65.5834 98.7236V98.1343C65.5834 97.1302 65.8677 96.2789 66.4362 95.5804C67.0485 94.8383 67.945 94.4672 69.1258 94.4672H73.1928V98.2652C73.1928 99.6622 72.9305 100.95 72.4057 102.129C71.8809 103.307 71.1374 104.311 70.1753 105.141C69.2132 105.97 68.0762 106.625 66.7642 107.105C65.4523 107.542 64.0091 107.76 62.4347 107.76C59.1985 107.76 56.5527 106.865 54.4973 105.075C52.4856 103.242 51.4798 100.644 51.4798 97.283V84.9722C51.4798 81.6108 52.4856 79.0133 54.4973 77.1797C56.5527 75.3462 59.1985 74.4295 62.4347 74.4295C64.0091 74.4295 65.4523 74.6914 66.7642 75.2153C68.1199 75.7391 69.2569 76.4376 70.1753 77.3107C71.1374 78.1838 71.8809 79.1879 72.4057 80.3229C72.9305 81.4143 73.1928 82.5493 73.1928 83.728V87.1331H68.929Z" fill="#35A7DC"/>
<path d="M100.457 101.146C101.157 101.627 101.507 102.653 101.507 104.224V107.433H94.2253C92.3448 107.433 91.4046 106.08 91.4046 103.373V85.4961C91.4046 84.5793 91.2296 83.859 90.8798 83.3351C90.5737 82.8113 90.1801 82.4184 89.699 82.1564C89.218 81.8945 88.6932 81.7417 88.1247 81.6981C87.5561 81.6544 87.0532 81.6762 86.6159 81.7635C85.8287 81.8945 85.2383 82.1346 84.8447 82.4839C84.4949 82.8331 84.32 82.9859 84.32 82.9422V99.7713C84.32 100.208 84.3637 100.513 84.4512 100.688C84.5824 100.863 84.7573 101.016 84.9759 101.146C85.3258 101.365 85.6538 101.736 85.9599 102.26C86.3098 102.74 86.4847 103.395 86.4847 104.224L86.4191 107.433H74.2834V104.159C74.2834 103.329 74.4365 102.674 74.7426 102.194C75.0925 101.714 75.4423 101.343 75.7922 101.081C76.0108 100.95 76.1858 100.797 76.317 100.623C76.4482 100.448 76.5138 100.142 76.5138 99.7059V66.2441C76.5138 65.6329 76.2732 65.1746 75.7922 64.869C75.4423 64.607 75.0925 64.2578 74.7426 63.8212C74.4365 63.341 74.2834 62.708 74.2834 61.9222V58.4516H82.9424C83.8608 58.4516 84.32 58.9755 84.32 60.0232V75.8046C84.6261 75.5863 85.0197 75.3899 85.5007 75.2153C85.8943 75.0406 86.4191 74.8878 87.0751 74.7569C87.7311 74.6259 88.5182 74.5604 89.4366 74.5604C92.804 74.5604 95.253 75.4772 96.7836 77.3107C98.3143 79.1442 99.0796 81.7417 99.0796 85.1032V99.8368C99.1233 100.23 99.2982 100.513 99.6044 100.688C99.9542 100.863 100.238 101.016 100.457 101.146Z" fill="#35A7DC"/>
<path d="M124.554 100.688C124.904 100.906 125.253 101.343 125.603 101.998C125.997 102.609 126.194 103.329 126.194 104.159V107.367H119.765C119.24 107.367 118.803 107.171 118.453 106.778C118.147 106.385 117.95 106.014 117.863 105.665C117.644 106.058 117.338 106.385 116.944 106.647C116.551 106.865 116.092 107.062 115.567 107.236C115.086 107.411 114.583 107.52 114.058 107.564C113.533 107.651 113.052 107.695 112.615 107.695C110.647 107.695 108.985 107.433 107.629 106.909C106.317 106.341 105.268 105.577 104.481 104.617C103.693 103.657 103.125 102.543 102.775 101.277C102.469 100.011 102.316 98.68 102.316 97.283V96.7591C102.316 95.0129 102.666 93.5941 103.366 92.5027C104.109 91.3677 104.984 90.4509 105.989 89.7525C107.039 89.054 108.11 88.5083 109.204 88.1154C110.341 87.7225 111.325 87.3732 112.156 87.0677C113.03 86.7184 113.73 86.391 114.255 86.0854C114.823 85.7362 115.283 85.4524 115.632 85.2341C115.982 84.9722 116.245 84.7103 116.42 84.4483V82.8113C116.42 82.3747 116.31 82.0037 116.092 81.6981C115.873 81.3925 115.589 81.1742 115.239 81.0432C114.933 80.8686 114.583 80.7595 114.189 80.7158C113.839 80.6285 113.511 80.5849 113.205 80.5849C112.899 80.5849 112.549 80.6285 112.156 80.7158C111.806 80.8031 111.456 80.9341 111.106 81.1087C110.8 81.2397 110.516 81.4361 110.253 81.6981C110.035 81.96 109.925 82.2874 109.925 82.6803V82.6148C109.925 83.095 109.707 83.5752 109.269 84.0554C108.832 84.5357 108.023 84.7758 106.842 84.7758H102.841V83.0732C102.841 81.8509 103.038 80.7158 103.431 79.6681C103.825 78.5767 104.437 77.66 105.268 76.9178C106.143 76.132 107.236 75.5208 108.548 75.0843C109.86 74.6477 111.456 74.4295 113.336 74.4295C117.141 74.4295 119.896 75.2153 121.602 76.7869C123.351 78.3148 124.226 80.4102 124.226 83.0732V99.182C124.226 99.5312 124.226 99.8368 124.226 100.099C124.269 100.361 124.379 100.557 124.554 100.688ZM116.42 90.6692L115.501 91.1276C115.239 91.2586 114.933 91.4114 114.583 91.586C114.233 91.7606 113.861 91.9352 113.468 92.1098C112.637 92.4591 111.85 92.9611 111.106 93.6159C110.363 94.2708 109.991 95.3403 109.991 96.8246V98.3962C109.991 99.7059 110.297 100.666 110.909 101.277C111.522 101.845 112.331 102.129 113.336 102.129C114.08 102.129 114.801 101.976 115.501 101.67C115.807 101.496 116.113 101.321 116.42 101.146V90.6692Z" fill="#35A7DC"/>
<path d="M135.058 92.3718V98.3307C135.058 99.2038 135.386 99.9023 136.042 100.426C136.698 100.906 137.529 101.146 138.535 101.146C139.541 101.146 140.372 100.885 141.028 100.361C141.684 99.8368 142.012 99.3784 142.012 98.9855V98.1997C142.012 97.1957 142.274 96.3444 142.799 95.6459C143.324 94.9038 144.176 94.5327 145.357 94.5327H149.621V98.8546C149.621 100.295 149.337 101.561 148.768 102.653C148.2 103.744 147.413 104.661 146.407 105.403C145.445 106.145 144.286 106.713 142.93 107.105C141.574 107.498 140.109 107.695 138.535 107.695C136.917 107.695 135.408 107.455 134.009 106.974C132.653 106.494 131.472 105.818 130.466 104.944C129.504 104.028 128.739 102.915 128.17 101.605C127.602 100.295 127.318 98.8109 127.318 97.152V84.8412C127.318 83.1823 127.602 81.6981 128.17 80.3884C128.739 79.0788 129.504 77.9874 130.466 77.1143C131.472 76.1975 132.653 75.5208 134.009 75.0843C135.408 74.6041 136.917 74.364 138.535 74.364C140.153 74.364 141.64 74.6041 142.996 75.0843C144.351 75.5208 145.51 76.1975 146.472 77.1143C147.478 77.9874 148.243 79.0788 148.768 80.3884C149.337 81.6981 149.621 83.1823 149.621 84.8412V89.0976C149.621 91.2804 148.506 92.3718 146.276 92.3718H135.058ZM135.058 87.1986H141.815V84.5793C141.815 83.7935 141.684 83.1605 141.421 82.6803C141.159 82.2001 140.831 81.829 140.437 81.5671C140.087 81.2615 139.716 81.0651 139.322 80.9778C138.928 80.8904 138.622 80.8468 138.404 80.8468C138.185 80.8468 137.879 80.9123 137.485 81.0432C137.092 81.1305 136.72 81.3052 136.37 81.5671C136.02 81.829 135.714 82.2001 135.452 82.6803C135.189 83.1605 135.058 83.7935 135.058 84.5793V87.1986Z" fill="#35A7DC"/>
<path d="M224.264 101.277C224.527 101.277 224.745 101.299 224.92 101.343C225.139 101.343 225.292 101.43 225.379 101.605C225.511 101.736 225.598 101.976 225.642 102.325C225.729 102.674 225.773 103.176 225.773 103.831V105.141C225.773 106.407 225.358 107.149 224.527 107.367C222.734 107.76 221.159 107.804 219.804 107.498C218.492 107.236 217.376 106.756 216.458 106.058C215.54 105.359 214.84 104.508 214.359 103.504C213.922 102.5 213.703 101.474 213.703 100.426V81.1742H210.423V78.293C210.423 76.896 210.642 75.9356 211.079 75.4117C211.56 74.8878 212.435 74.6259 213.703 74.6259V72.0066V67.6192V68.0121C213.703 65.1309 214.315 63.1664 215.54 62.1187C216.808 61.0273 218.798 60.4816 221.509 60.4816V67.6192V72.0066V74.6259H224.855V76.8523C224.855 77.7691 224.789 78.5112 224.658 79.0787C224.57 79.6463 224.395 80.0828 224.133 80.3884C223.871 80.694 223.521 80.9123 223.083 81.0432C222.646 81.1305 222.121 81.1742 221.509 81.1742V98.2652C221.509 99.1383 221.684 99.9023 222.034 100.557C222.384 101.168 223.127 101.408 224.264 101.277Z" fill="#35A7DC"/>
<path d="M250.156 74.6914V78.162C250.156 79.0351 250.024 79.7117 249.762 80.192C249.543 80.6722 249.281 81.0214 248.975 81.2397C248.844 81.327 248.691 81.5453 248.516 81.8945C248.428 82.0691 248.363 82.2219 248.319 82.3529C248.013 83.5316 247.663 85.1032 247.269 87.0677C246.919 89.0321 246.526 91.1931 246.088 93.5505C245.695 95.9078 245.258 98.3744 244.776 100.95C244.339 103.526 243.88 106.058 243.399 108.546C242.962 111.034 242.502 113.37 242.021 115.553C241.54 117.779 241.081 119.678 240.644 121.25C240.425 122.079 240.097 122.734 239.66 123.214C239.266 123.738 238.698 124 237.954 124H233.034H231.788V119.94C231.788 118.587 232.357 117.605 233.494 116.993C233.843 116.819 234.106 116.688 234.281 116.6C234.499 116.513 234.652 116.317 234.74 116.011L236.642 107.433H233.887C232.881 107.433 232.269 106.887 232.05 105.796C231.875 104.923 231.657 103.788 231.394 102.391C231.132 100.95 230.848 99.4221 230.542 97.8068C230.236 96.1916 229.929 94.5764 229.623 92.9611C229.361 91.3022 229.099 89.7961 228.836 88.4428C228.574 87.0458 228.355 85.889 228.18 84.9722C228.049 84.0554 227.961 83.5316 227.918 83.4006C227.699 82.3092 227.371 81.6108 226.934 81.3052C226.584 81.0869 226.278 80.7376 226.015 80.2574C225.797 79.7772 225.687 79.1661 225.687 78.4239V74.6914H232.182C232.838 74.6914 233.362 74.9315 233.756 75.4117C234.15 75.8919 234.412 76.5467 234.543 77.3762C234.543 77.4635 234.587 77.8564 234.674 78.5549C234.762 79.2097 234.893 80.0828 235.068 81.1742C235.243 82.2219 235.418 83.4224 235.593 84.7758C235.811 86.0854 236.03 87.4387 236.249 88.8357C236.73 92.1098 237.276 95.7987 237.889 99.9023C238.545 95.9297 239.135 92.3718 239.66 89.2286C239.878 87.8753 240.097 86.5438 240.316 85.2341C240.534 83.9245 240.731 82.7458 240.906 81.6981C241.125 80.6503 241.278 79.7991 241.365 79.1442C241.497 78.4457 241.584 78.031 241.628 77.9001C241.89 76.765 242.174 75.9574 242.481 75.4772C242.787 74.9533 243.486 74.6914 244.58 74.6914H250.156Z" fill="#35A7DC"/>
<path d="M265.848 74.4295C269.128 74.4295 271.49 75.3244 272.933 77.1143C274.376 78.8605 275.098 81.4143 275.098 84.7758V97.152C275.098 100.513 274.267 103.155 272.605 105.075C270.943 106.996 268.319 107.869 264.733 107.695C264.034 107.651 263.421 107.564 262.896 107.433C262.372 107.346 261.934 107.258 261.585 107.171C261.147 107.04 260.797 106.909 260.535 106.778V116.404C260.535 116.797 260.601 117.081 260.732 117.255C260.863 117.43 261.038 117.605 261.257 117.779C261.606 117.997 261.934 118.347 262.241 118.827C262.59 119.307 262.765 119.984 262.765 120.857V124H250.433V120.529C250.433 119.787 250.586 119.176 250.892 118.696C251.198 118.216 251.526 117.845 251.876 117.583C252.095 117.452 252.27 117.277 252.401 117.059C252.576 116.841 252.663 116.557 252.663 116.208V82.5493C252.663 82.1128 252.598 81.8072 252.466 81.6326C252.335 81.4143 252.16 81.2397 251.942 81.1087C251.592 80.8468 251.242 80.4757 250.892 79.9955C250.586 79.5153 250.433 78.8605 250.433 78.031V74.6914H259.289C259.857 74.6914 260.229 74.9097 260.404 75.3462C260.491 75.5208 260.535 75.7173 260.535 75.9356C260.754 75.7173 261.278 75.4117 262.109 75.0188C262.94 74.6259 264.187 74.4295 265.848 74.4295ZM267.292 97.5449V84.3829C267.292 83.0732 266.832 82.1783 265.914 81.6981C264.996 81.1742 263.946 80.9778 262.765 81.1087C262.284 81.196 261.891 81.327 261.585 81.5016C261.322 81.6762 261.103 81.8509 260.929 82.0255C260.754 82.2001 260.622 82.4184 260.535 82.6803V99.7713C260.666 99.9896 260.819 100.186 260.994 100.361C261.169 100.535 261.388 100.688 261.65 100.819C261.913 100.95 262.262 101.037 262.7 101.081C263.181 101.125 263.684 101.103 264.208 101.016C264.777 100.928 265.28 100.732 265.717 100.426C266.198 100.121 266.57 99.7059 266.832 99.182C267.139 98.6145 267.292 97.916 267.292 97.0865V97.5449Z" fill="#35A7DC"/>
<path d="M285.437 92.3718V98.3307C285.437 99.2038 285.765 99.9023 286.421 100.426C287.077 100.906 287.908 101.146 288.914 101.146C289.92 101.146 290.751 100.885 291.407 100.361C292.063 99.8368 292.391 99.3784 292.391 98.9855V98.1997C292.391 97.1957 292.653 96.3444 293.178 95.6459C293.703 94.9038 294.555 94.5327 295.736 94.5327H300V98.8546C300 100.295 299.716 101.561 299.147 102.653C298.579 103.744 297.792 104.661 296.786 105.403C295.824 106.145 294.665 106.713 293.309 107.105C291.953 107.498 290.488 107.695 288.914 107.695C287.296 107.695 285.787 107.455 284.388 106.974C283.032 106.494 281.851 105.818 280.845 104.944C279.883 104.028 279.118 102.915 278.549 101.605C277.981 100.295 277.697 98.8109 277.697 97.152V84.8412C277.697 83.1823 277.981 81.6981 278.549 80.3884C279.118 79.0787 279.883 77.9874 280.845 77.1143C281.851 76.1975 283.032 75.5208 284.388 75.0843C285.787 74.6041 287.296 74.364 288.914 74.364C290.532 74.364 292.019 74.6041 293.375 75.0843C294.73 75.5208 295.889 76.1975 296.851 77.1143C297.857 77.9874 298.622 79.0787 299.147 80.3884C299.716 81.6981 300 83.1823 300 84.8412V89.0976C300 91.2804 298.885 92.3718 296.655 92.3718H285.437ZM285.437 87.1986H292.194V84.5793C292.194 83.7935 292.063 83.1605 291.8 82.6803C291.538 82.2001 291.21 81.829 290.816 81.5671C290.466 81.2615 290.095 81.0651 289.701 80.9778C289.308 80.8904 289.001 80.8468 288.783 80.8468C288.564 80.8468 288.258 80.9123 287.864 81.0432C287.471 81.1305 287.099 81.3052 286.749 81.5671C286.399 81.829 286.093 82.2001 285.831 82.6803C285.568 83.1605 285.437 83.7935 285.437 84.5793V87.1986Z" fill="#35A7DC"/>
<path d="M181.494 74.4295C183.068 74.4295 184.534 74.6914 185.889 75.2153C187.289 75.7391 188.491 76.4376 189.497 77.3107C190.547 78.1402 191.356 79.1224 191.924 80.2574C192.493 81.3488 192.777 82.4839 192.777 83.6626V98.1997C192.777 99.5967 192.493 100.885 191.924 102.063C191.356 103.242 190.547 104.246 189.497 105.075C188.491 105.905 187.289 106.56 185.889 107.04C184.534 107.476 183.068 107.695 181.494 107.695C179.876 107.695 178.389 107.498 177.033 107.105C175.678 106.713 174.497 106.123 173.491 105.337C172.485 104.508 171.698 103.482 171.13 102.26C170.561 100.994 170.277 99.5312 170.277 97.8723V84.2519C170.277 82.593 170.561 81.1524 171.13 79.93C171.698 78.664 172.485 77.6381 173.491 76.8523C174.497 76.0229 175.678 75.4117 177.033 75.0188C178.389 74.6259 179.876 74.4295 181.494 74.4295ZM181.494 101.212C182.675 101.212 183.55 100.885 184.118 100.23C184.73 99.5312 185.036 98.8109 185.036 98.0688V84.2519C185.036 83.5098 184.752 82.7676 184.184 82.0255C183.615 81.2833 182.719 80.9123 181.494 80.9123C180.313 80.9123 179.439 81.2397 178.87 81.8945C178.302 82.5493 178.017 83.2478 178.017 83.99V98.1343C178.017 98.7018 178.302 99.3566 178.87 100.099C179.439 100.841 180.313 101.212 181.494 101.212Z" fill="#35A7DC"/>
<path d="M5.6 115.49V125H7.025V115.49H10.595V114.29H2.03V115.49H5.6Z" fill="#8D8D8D"/>
<path d="M12.7733 114.29V125H14.0483V120.62C14.0483 120.27 14.0933 119.95 14.1833 119.66C14.2833 119.36 14.4283 119.1 14.6183 118.88C14.8083 118.66 15.0433 118.49 15.3233 118.37C15.6133 118.25 15.9533 118.19 16.3433 118.19C16.8333 118.19 17.2183 118.33 17.4983 118.61C17.7783 118.89 17.9183 119.27 17.9183 119.75V125H19.1933V119.9C19.1933 119.48 19.1483 119.1 19.0583 118.76C18.9783 118.41 18.8333 118.11 18.6233 117.86C18.4133 117.61 18.1383 117.415 17.7983 117.275C17.4583 117.135 17.0333 117.065 16.5233 117.065C16.2933 117.065 16.0533 117.09 15.8033 117.14C15.5633 117.19 15.3283 117.27 15.0983 117.38C14.8783 117.48 14.6783 117.615 14.4983 117.785C14.3183 117.945 14.1783 118.145 14.0783 118.385H14.0483V114.29H12.7733Z" fill="#8D8D8D"/>
<path d="M27.6932 120.38H23.2382C23.2582 120.08 23.3232 119.8 23.4332 119.54C23.5432 119.27 23.6932 119.035 23.8832 118.835C24.0732 118.635 24.2982 118.48 24.5582 118.37C24.8282 118.25 25.1282 118.19 25.4582 118.19C25.7782 118.19 26.0682 118.25 26.3282 118.37C26.5982 118.48 26.8282 118.635 27.0182 118.835C27.2182 119.025 27.3732 119.255 27.4832 119.525C27.6032 119.795 27.6732 120.08 27.6932 120.38ZM28.9232 122.54H27.6632C27.5532 123.05 27.3232 123.43 26.9732 123.68C26.6332 123.93 26.1932 124.055 25.6532 124.055C25.2332 124.055 24.8682 123.985 24.5582 123.845C24.2482 123.705 23.9932 123.52 23.7932 123.29C23.5932 123.05 23.4482 122.78 23.3582 122.48C23.2682 122.17 23.2282 121.845 23.2382 121.505H29.0432C29.0632 121.035 29.0182 120.54 28.9082 120.02C28.8082 119.5 28.6182 119.02 28.3382 118.58C28.0682 118.14 27.7032 117.78 27.2432 117.5C26.7932 117.21 26.2232 117.065 25.5332 117.065C25.0032 117.065 24.5132 117.165 24.0632 117.365C23.6232 117.565 23.2382 117.845 22.9082 118.205C22.5882 118.565 22.3382 118.99 22.1582 119.48C21.9782 119.97 21.8882 120.51 21.8882 121.1C21.9082 121.69 21.9932 122.235 22.1432 122.735C22.3032 123.235 22.5382 123.665 22.8482 124.025C23.1582 124.385 23.5382 124.665 23.9882 124.865C24.4482 125.065 24.9882 125.165 25.6082 125.165C26.4882 125.165 27.2182 124.945 27.7982 124.505C28.3782 124.065 28.7532 123.41 28.9232 122.54Z" fill="#8D8D8D"/>
<path d="M38.5747 123.8V115.49H40.9747C41.6347 115.49 42.1897 115.585 42.6397 115.775C43.0897 115.955 43.4547 116.225 43.7347 116.585C44.0247 116.935 44.2297 117.365 44.3497 117.875C44.4797 118.375 44.5447 118.945 44.5447 119.585C44.5447 120.245 44.4747 120.81 44.3347 121.28C44.2047 121.74 44.0347 122.125 43.8247 122.435C43.6147 122.745 43.3747 122.99 43.1047 123.17C42.8447 123.35 42.5797 123.49 42.3097 123.59C42.0397 123.68 41.7847 123.74 41.5447 123.77C41.3047 123.79 41.1047 123.8 40.9447 123.8H38.5747ZM37.1497 114.29V125H40.8247C41.7147 125 42.4847 124.875 43.1347 124.625C43.7847 124.375 44.3197 124.015 44.7397 123.545C45.1597 123.065 45.4697 122.48 45.6697 121.79C45.8697 121.09 45.9697 120.29 45.9697 119.39C45.9697 117.67 45.5247 116.39 44.6347 115.55C43.7447 114.71 42.4747 114.29 40.8247 114.29H37.1497Z" fill="#8D8D8D"/>
<path d="M55.5712 124.97C55.3512 125.1 55.0462 125.165 54.6562 125.165C54.3262 125.165 54.0612 125.075 53.8612 124.895C53.6712 124.705 53.5762 124.4 53.5762 123.98C53.2262 124.4 52.8162 124.705 52.3462 124.895C51.8862 125.075 51.3862 125.165 50.8462 125.165C50.4962 125.165 50.1612 125.125 49.8412 125.045C49.5312 124.965 49.2612 124.84 49.0312 124.67C48.8012 124.5 48.6162 124.28 48.4762 124.01C48.3462 123.73 48.2812 123.395 48.2812 123.005C48.2812 122.565 48.3562 122.205 48.5062 121.925C48.6562 121.645 48.8512 121.42 49.0912 121.25C49.3412 121.07 49.6212 120.935 49.9312 120.845C50.2512 120.755 50.5762 120.68 50.9062 120.62C51.2562 120.55 51.5862 120.5 51.8962 120.47C52.2162 120.43 52.4962 120.38 52.7362 120.32C52.9762 120.25 53.1662 120.155 53.3062 120.035C53.4462 119.905 53.5162 119.72 53.5162 119.48C53.5162 119.2 53.4612 118.975 53.3512 118.805C53.2512 118.635 53.1162 118.505 52.9462 118.415C52.7862 118.325 52.6012 118.265 52.3912 118.235C52.1912 118.205 51.9912 118.19 51.7912 118.19C51.2512 118.19 50.8012 118.295 50.4412 118.505C50.0812 118.705 49.8862 119.09 49.8562 119.66H48.5812C48.6012 119.18 48.7012 118.775 48.8812 118.445C49.0612 118.115 49.3012 117.85 49.6012 117.65C49.9012 117.44 50.2412 117.29 50.6212 117.2C51.0112 117.11 51.4262 117.065 51.8662 117.065C52.2162 117.065 52.5612 117.09 52.9012 117.14C53.2512 117.19 53.5662 117.295 53.8462 117.455C54.1262 117.605 54.3512 117.82 54.5212 118.1C54.6912 118.38 54.7762 118.745 54.7762 119.195V123.185C54.7762 123.485 54.7912 123.705 54.8212 123.845C54.8612 123.985 54.9812 124.055 55.1812 124.055C55.2912 124.055 55.4212 124.03 55.5712 123.98V124.97ZM53.5012 120.995C53.3412 121.115 53.1312 121.205 52.8712 121.265C52.6112 121.315 52.3362 121.36 52.0462 121.4C51.7662 121.43 51.4812 121.47 51.1912 121.52C50.9012 121.56 50.6412 121.63 50.4112 121.73C50.1812 121.83 49.9912 121.975 49.8412 122.165C49.7012 122.345 49.6312 122.595 49.6312 122.915C49.6312 123.125 49.6712 123.305 49.7512 123.455C49.8412 123.595 49.9512 123.71 50.0812 123.8C50.2212 123.89 50.3812 123.955 50.5612 123.995C50.7412 124.035 50.9312 124.055 51.1312 124.055C51.5512 124.055 51.9112 124 52.2112 123.89C52.5112 123.77 52.7562 123.625 52.9462 123.455C53.1362 123.275 53.2762 123.085 53.3662 122.885C53.4562 122.675 53.5012 122.48 53.5012 122.3V120.995Z" fill="#8D8D8D"/>
<path d="M58.0329 114.29V125H59.3079V114.29H58.0329Z" fill="#8D8D8D"/>
<path d="M64.253 117.245V114.92H62.9781V117.245H61.658V118.37H62.9781V123.305C62.9781 123.665 63.013 123.955 63.083 124.175C63.153 124.395 63.258 124.565 63.398 124.685C63.548 124.805 63.738 124.89 63.968 124.94C64.208 124.98 64.493 125 64.823 125H65.798V123.875H65.213C65.013 123.875 64.848 123.87 64.718 123.86C64.598 123.84 64.503 123.805 64.433 123.755C64.363 123.705 64.3131 123.635 64.2831 123.545C64.2631 123.455 64.253 123.335 64.253 123.185V118.37H65.798V117.245H64.253Z" fill="#8D8D8D"/>
<path d="M69.3445 121.13C69.3445 120.66 69.4045 120.245 69.5245 119.885C69.6545 119.515 69.8295 119.205 70.0495 118.955C70.2695 118.705 70.5245 118.515 70.8145 118.385C71.1145 118.255 71.4295 118.19 71.7595 118.19C72.0895 118.19 72.3995 118.255 72.6895 118.385C72.9895 118.515 73.2495 118.705 73.4695 118.955C73.6895 119.205 73.8595 119.515 73.9795 119.885C74.1095 120.245 74.1745 120.66 74.1745 121.13C74.1745 121.6 74.1095 122.02 73.9795 122.39C73.8595 122.75 73.6895 123.055 73.4695 123.305C73.2495 123.545 72.9895 123.73 72.6895 123.86C72.3995 123.99 72.0895 124.055 71.7595 124.055C71.4295 124.055 71.1145 123.99 70.8145 123.86C70.5245 123.73 70.2695 123.545 70.0495 123.305C69.8295 123.055 69.6545 122.75 69.5245 122.39C69.4045 122.02 69.3445 121.6 69.3445 121.13ZM67.9945 121.13C67.9945 121.7 68.0745 122.23 68.2345 122.72C68.3945 123.21 68.6345 123.64 68.9545 124.01C69.2745 124.37 69.6695 124.655 70.1395 124.865C70.6095 125.065 71.1495 125.165 71.7595 125.165C72.3795 125.165 72.9195 125.065 73.3795 124.865C73.8495 124.655 74.2445 124.37 74.5645 124.01C74.8845 123.64 75.1245 123.21 75.2845 122.72C75.4445 122.23 75.5245 121.7 75.5245 121.13C75.5245 120.56 75.4445 120.03 75.2845 119.54C75.1245 119.04 74.8845 118.61 74.5645 118.25C74.2445 117.88 73.8495 117.59 73.3795 117.38C72.9195 117.17 72.3795 117.065 71.7595 117.065C71.1495 117.065 70.6095 117.17 70.1395 117.38C69.6695 117.59 69.2745 117.88 68.9545 118.25C68.6345 118.61 68.3945 119.04 68.2345 119.54C68.0745 120.03 67.9945 120.56 67.9945 121.13Z" fill="#8D8D8D"/>
<path d="M78.2278 117.245V125H79.5028V120.62C79.5028 120.27 79.5478 119.95 79.6378 119.66C79.7378 119.36 79.8828 119.1 80.0728 118.88C80.2628 118.66 80.4978 118.49 80.7778 118.37C81.0678 118.25 81.4078 118.19 81.7978 118.19C82.2878 118.19 82.6728 118.33 82.9528 118.61C83.2328 118.89 83.3728 119.27 83.3728 119.75V125H84.6478V119.9C84.6478 119.48 84.6028 119.1 84.5128 118.76C84.4328 118.41 84.2878 118.11 84.0778 117.86C83.8678 117.61 83.5928 117.415 83.2528 117.275C82.9128 117.135 82.4878 117.065 81.9778 117.065C80.8278 117.065 79.9878 117.535 79.4578 118.475H79.4278V117.245H78.2278Z" fill="#8D8D8D"/>
<path d="M99.5425 117.425H100.893C100.873 116.835 100.758 116.33 100.548 115.91C100.348 115.48 100.068 115.125 99.7075 114.845C99.3575 114.565 98.9475 114.36 98.4775 114.23C98.0075 114.1 97.4975 114.035 96.9475 114.035C96.4575 114.035 95.9775 114.1 95.5075 114.23C95.0475 114.35 94.6325 114.54 94.2625 114.8C93.9025 115.05 93.6125 115.375 93.3925 115.775C93.1725 116.165 93.0625 116.63 93.0625 117.17C93.0625 117.66 93.1575 118.07 93.3475 118.4C93.5475 118.72 93.8075 118.985 94.1275 119.195C94.4575 119.395 94.8275 119.56 95.2375 119.69C95.6475 119.81 96.0625 119.92 96.4825 120.02C96.9125 120.11 97.3325 120.2 97.7425 120.29C98.1525 120.38 98.5175 120.5 98.8375 120.65C99.1675 120.79 99.4275 120.975 99.6175 121.205C99.8175 121.435 99.9175 121.735 99.9175 122.105C99.9175 122.495 99.8375 122.815 99.6775 123.065C99.5175 123.315 99.3075 123.515 99.0475 123.665C98.7875 123.805 98.4925 123.905 98.1625 123.965C97.8425 124.025 97.5225 124.055 97.2025 124.055C96.8025 124.055 96.4125 124.005 96.0325 123.905C95.6525 123.805 95.3175 123.65 95.0275 123.44C94.7475 123.23 94.5175 122.965 94.3375 122.645C94.1675 122.315 94.0825 121.925 94.0825 121.475H92.7325C92.7325 122.125 92.8475 122.69 93.0775 123.17C93.3175 123.64 93.6375 124.03 94.0375 124.34C94.4475 124.64 94.9175 124.865 95.4475 125.015C95.9875 125.165 96.5575 125.24 97.1575 125.24C97.6475 125.24 98.1375 125.18 98.6275 125.06C99.1275 124.95 99.5775 124.77 99.9775 124.52C100.378 124.26 100.703 123.93 100.953 123.53C101.213 123.12 101.343 122.63 101.343 122.06C101.343 121.53 101.243 121.09 101.043 120.74C100.853 120.39 100.593 120.1 100.263 119.87C99.9425 119.64 99.5775 119.46 99.1675 119.33C98.7575 119.19 98.3375 119.07 97.9075 118.97C97.4875 118.87 97.0725 118.78 96.6625 118.7C96.2525 118.61 95.8825 118.5 95.5525 118.37C95.2325 118.24 94.9725 118.075 94.7725 117.875C94.5825 117.665 94.4875 117.395 94.4875 117.065C94.4875 116.715 94.5525 116.425 94.6825 116.195C94.8225 115.955 95.0025 115.765 95.2225 115.625C95.4525 115.485 95.7125 115.385 96.0025 115.325C96.2925 115.265 96.5875 115.235 96.8875 115.235C97.6275 115.235 98.2325 115.41 98.7025 115.76C99.1825 116.1 99.4625 116.655 99.5425 117.425Z" fill="#8D8D8D"/>
<path d="M109.329 119.735H110.649C110.599 119.275 110.479 118.88 110.289 118.55C110.099 118.21 109.854 117.93 109.554 117.71C109.264 117.49 108.924 117.33 108.534 117.23C108.154 117.12 107.744 117.065 107.304 117.065C106.694 117.065 106.159 117.175 105.699 117.395C105.239 117.605 104.854 117.9 104.544 118.28C104.244 118.65 104.019 119.09 103.869 119.6C103.719 120.1 103.644 120.64 103.644 121.22C103.644 121.8 103.719 122.335 103.869 122.825C104.029 123.305 104.259 123.72 104.559 124.07C104.869 124.42 105.249 124.69 105.699 124.88C106.159 125.07 106.684 125.165 107.274 125.165C108.264 125.165 109.044 124.905 109.614 124.385C110.194 123.865 110.554 123.125 110.694 122.165H109.389C109.309 122.765 109.089 123.23 108.729 123.56C108.379 123.89 107.889 124.055 107.259 124.055C106.859 124.055 106.514 123.975 106.224 123.815C105.934 123.655 105.699 123.445 105.519 123.185C105.339 122.915 105.204 122.61 105.114 122.27C105.034 121.93 104.994 121.58 104.994 121.22C104.994 120.83 105.034 120.455 105.114 120.095C105.194 119.725 105.324 119.4 105.504 119.12C105.694 118.84 105.944 118.615 106.254 118.445C106.564 118.275 106.949 118.19 107.409 118.19C107.949 118.19 108.379 118.325 108.699 118.595C109.019 118.865 109.229 119.245 109.329 119.735Z" fill="#8D8D8D"/>
<path d="M113.321 114.29V125H114.596V120.62C114.596 120.27 114.641 119.95 114.731 119.66C114.831 119.36 114.976 119.1 115.166 118.88C115.356 118.66 115.591 118.49 115.871 118.37C116.161 118.25 116.501 118.19 116.891 118.19C117.381 118.19 117.766 118.33 118.046 118.61C118.326 118.89 118.466 119.27 118.466 119.75V125H119.741V119.9C119.741 119.48 119.696 119.1 119.606 118.76C119.526 118.41 119.381 118.11 119.171 117.86C118.961 117.61 118.686 117.415 118.346 117.275C118.006 117.135 117.581 117.065 117.071 117.065C116.841 117.065 116.601 117.09 116.351 117.14C116.111 117.19 115.876 117.27 115.646 117.38C115.426 117.48 115.226 117.615 115.046 117.785C114.866 117.945 114.726 118.145 114.626 118.385H114.596V114.29H113.321Z" fill="#8D8D8D"/>
<path d="M123.786 121.13C123.786 120.66 123.846 120.245 123.966 119.885C124.096 119.515 124.271 119.205 124.491 118.955C124.711 118.705 124.966 118.515 125.256 118.385C125.556 118.255 125.871 118.19 126.201 118.19C126.531 118.19 126.841 118.255 127.131 118.385C127.431 118.515 127.691 118.705 127.911 118.955C128.131 119.205 128.301 119.515 128.421 119.885C128.551 120.245 128.616 120.66 128.616 121.13C128.616 121.6 128.551 122.02 128.421 122.39C128.301 122.75 128.131 123.055 127.911 123.305C127.691 123.545 127.431 123.73 127.131 123.86C126.841 123.99 126.531 124.055 126.201 124.055C125.871 124.055 125.556 123.99 125.256 123.86C124.966 123.73 124.711 123.545 124.491 123.305C124.271 123.055 124.096 122.75 123.966 122.39C123.846 122.02 123.786 121.6 123.786 121.13ZM122.436 121.13C122.436 121.7 122.516 122.23 122.676 122.72C122.836 123.21 123.076 123.64 123.396 124.01C123.716 124.37 124.111 124.655 124.581 124.865C125.051 125.065 125.591 125.165 126.201 125.165C126.821 125.165 127.361 125.065 127.821 124.865C128.291 124.655 128.686 124.37 129.006 124.01C129.326 123.64 129.566 123.21 129.726 122.72C129.886 122.23 129.966 121.7 129.966 121.13C129.966 120.56 129.886 120.03 129.726 119.54C129.566 119.04 129.326 118.61 129.006 118.25C128.686 117.88 128.291 117.59 127.821 117.38C127.361 117.17 126.821 117.065 126.201 117.065C125.591 117.065 125.051 117.17 124.581 117.38C124.111 117.59 123.716 117.88 123.396 118.25C123.076 118.61 122.836 119.04 122.676 119.54C122.516 120.03 122.436 120.56 122.436 121.13Z" fill="#8D8D8D"/>
<path d="M133.599 121.13C133.599 120.66 133.659 120.245 133.779 119.885C133.909 119.515 134.084 119.205 134.304 118.955C134.524 118.705 134.779 118.515 135.069 118.385C135.369 118.255 135.684 118.19 136.014 118.19C136.344 118.19 136.654 118.255 136.944 118.385C137.244 118.515 137.504 118.705 137.724 118.955C137.944 119.205 138.114 119.515 138.234 119.885C138.364 120.245 138.429 120.66 138.429 121.13C138.429 121.6 138.364 122.02 138.234 122.39C138.114 122.75 137.944 123.055 137.724 123.305C137.504 123.545 137.244 123.73 136.944 123.86C136.654 123.99 136.344 124.055 136.014 124.055C135.684 124.055 135.369 123.99 135.069 123.86C134.779 123.73 134.524 123.545 134.304 123.305C134.084 123.055 133.909 122.75 133.779 122.39C133.659 122.02 133.599 121.6 133.599 121.13ZM132.249 121.13C132.249 121.7 132.329 122.23 132.489 122.72C132.649 123.21 132.889 123.64 133.209 124.01C133.529 124.37 133.924 124.655 134.394 124.865C134.864 125.065 135.404 125.165 136.014 125.165C136.634 125.165 137.174 125.065 137.634 124.865C138.104 124.655 138.499 124.37 138.819 124.01C139.139 123.64 139.379 123.21 139.539 122.72C139.699 122.23 139.779 121.7 139.779 121.13C139.779 120.56 139.699 120.03 139.539 119.54C139.379 119.04 139.139 118.61 138.819 118.25C138.499 117.88 138.104 117.59 137.634 117.38C137.174 117.17 136.634 117.065 136.014 117.065C135.404 117.065 134.864 117.17 134.394 117.38C133.924 117.59 133.529 117.88 133.209 118.25C132.889 118.61 132.649 119.04 132.489 119.54C132.329 120.03 132.249 120.56 132.249 121.13Z" fill="#8D8D8D"/>
<path d="M142.557 114.29V125H143.832V114.29H142.557Z" fill="#8D8D8D"/>
</svg>
